<svg width="80" height="80" viewBox="0 0 80 80" fill="none" xmlns="http://www.w3.org/2000/svg">
<rect width="80" height="80" rx="10" fill="#2FC2FC" fill-opacity="0.1"/>
<path d="M50.2333 56.0332C48.7666 56.4666 47.0333 56.6666 44.9999 56.6666H34.9999C32.9666 56.6666 31.2333 56.4666 29.7666 56.0332C30.1333 51.6999 34.5833 48.2832 39.9999 48.2832C45.4166 48.2832 49.8666 51.6999 50.2333 56.0332Z" stroke="#2FC2FC" stroke-width="2" stroke-linecap="round" stroke-linejoin="round"/>
<path d="M45.0002 23.3335H35.0002C26.6668 23.3335 23.3335 26.6668 23.3335 35.0002V45.0002C23.3335 51.3002 25.2335 54.7502 29.7668 56.0335C30.1335 51.7002 34.5835 48.2834 40.0002 48.2834C45.4168 48.2834 49.8668 51.7002 50.2335 56.0335C54.7668 54.7502 56.6668 51.3002 56.6668 45.0002V35.0002C56.6668 26.6668 53.3335 23.3335 45.0002 23.3335ZM40.0002 43.6168C36.7002 43.6168 34.0335 40.9335 34.0335 37.6335C34.0335 34.3335 36.7002 31.6668 40.0002 31.6668C43.3002 31.6668 45.9668 34.3335 45.9668 37.6335C45.9668 40.9335 43.3002 43.6168 40.0002 43.6168Z" stroke="#2FC2FC" stroke-width="2" stroke-linecap="round" stroke-linejoin="round"/>
<path d="M45.9665 37.6332C45.9665 40.9332 43.2999 43.6165 39.9999 43.6165C36.6999 43.6165 34.0332 40.9332 34.0332 37.6332C34.0332 34.3332 36.6999 31.6665 39.9999 31.6665C43.2999 31.6665 45.9665 34.3332 45.9665 37.6332Z" stroke="#2FC2FC" stroke-width="2" stroke-linecap="round" stroke-linejoin="round"/>
</svg>
