<svg width="80" height="80" viewBox="0 0 80 80" fill="none" xmlns="http://www.w3.org/2000/svg">
<rect width="80" height="80" rx="10" fill="#FD5823" fill-opacity="0.1"/>
<path d="M33.3337 56.6667H46.667C53.367 56.6667 54.567 53.9833 54.917 50.7167L56.167 37.3833C56.617 33.3167 55.4504 30 48.3337 30H31.667C24.5504 30 23.3837 33.3167 23.8337 37.3833L25.0837 50.7167C25.4337 53.9833 26.6337 56.6667 33.3337 56.6667Z" stroke="#FD5823" stroke-width="2" stroke-miterlimit="10" stroke-linecap="round" stroke-linejoin="round"/>
<path d="M33.3335 30.0002V28.6668C33.3335 25.7168 33.3335 23.3335 38.6668 23.3335H41.3335C46.6668 23.3335 46.6668 25.7168 46.6668 28.6668V30.0002" stroke="#FD5823" stroke-width="2" stroke-miterlimit="10" stroke-linecap="round" stroke-linejoin="round"/>
<path d="M43.3332 41.6667V43.3333C43.3332 43.35 43.3332 43.35 43.3332 43.3667C43.3332 45.1833 43.3165 46.6667 39.9998 46.6667C36.6998 46.6667 36.6665 45.2 36.6665 43.3833V41.6667C36.6665 40 36.6665 40 38.3332 40H41.6665C43.3332 40 43.3332 40 43.3332 41.6667Z" stroke="#FD5823" stroke-width="2" stroke-miterlimit="10" stroke-linecap="round" stroke-linejoin="round"/>
<path d="M56.0835 38.3335C52.2335 41.1335 47.8335 42.8002 43.3335 43.3668" stroke="#FD5823" stroke-width="2" stroke-miterlimit="10" stroke-linecap="round" stroke-linejoin="round"/>
<path d="M24.3667 38.7832C28.1167 41.3499 32.35 42.8999 36.6667 43.3832" stroke="#FD5823" stroke-width="2" stroke-miterlimit="10" stroke-linecap="round" stroke-linejoin="round"/>
</svg>
