<svg width="47" height="47" viewBox="0 0 47 47" fill="none" xmlns="http://www.w3.org/2000/svg">
<g clip-path="url(#clip0_2683_6565)">
<path d="M44.406 47.0002C45.8384 47.0002 47 45.8388 47 44.4062V2.594C47 1.16123 45.8384 0 44.406 0H2.594C1.16105 0 0 1.16123 0 2.594V44.4062C0 45.8388 1.16105 47.0002 2.594 47.0002H44.406Z" fill="#395185"/>
<path d="M32.4289 47.0002V28.7992H38.5383L39.453 21.7061H32.4289V17.1772C32.4289 15.1235 32.9993 13.724 35.9444 13.724L39.7005 13.7223V7.37825C39.0506 7.29177 36.821 7.09863 34.2272 7.09863C28.8116 7.09863 25.1041 10.4042 25.1041 16.4749V21.7061H18.979V28.7992H25.1041V47.0002H32.4289Z" fill="white"/>
</g>
<defs>
<clipPath id="clip0_2683_6565">
<rect width="47" height="47" fill="white"/>
</clipPath>
</defs>
</svg>
