<svg width="47" height="47" viewBox="0 0 47 47" fill="none" xmlns="http://www.w3.org/2000/svg">
<path d="M42.7023 19.6644H41.1248V19.5832H23.4998V27.4165H34.5674C32.9527 31.9765 28.614 35.2498 23.4998 35.2498C17.0109 35.2498 11.7498 29.9888 11.7498 23.4998C11.7498 17.0109 17.0109 11.7498 23.4998 11.7498C26.4951 11.7498 29.2201 12.8798 31.295 14.7255L36.8341 9.18638C33.3365 5.92673 28.6581 3.9165 23.4998 3.9165C12.6849 3.9165 3.9165 12.6849 3.9165 23.4998C3.9165 34.3147 12.6849 43.0832 23.4998 43.0832C34.3147 43.0832 43.0832 34.3147 43.0832 23.4998C43.0832 22.1868 42.948 20.905 42.7023 19.6644Z" fill="#FFC107"/>
<path d="M6.1748 14.3848L12.6089 19.1034C14.3499 14.7931 18.5662 11.7498 23.5002 11.7498C26.4955 11.7498 29.2205 12.8798 31.2953 14.7255L36.8345 9.18638C33.3369 5.92673 28.6584 3.9165 23.5002 3.9165C15.9782 3.9165 9.45501 8.16315 6.1748 14.3848Z" fill="#FF3D00"/>
<path d="M23.5 43.0835C28.5584 43.0835 33.1546 41.1477 36.6296 37.9997L30.5686 32.8708C28.5364 34.4163 26.0531 35.2522 23.5 35.2502C18.4064 35.2502 14.0814 32.0023 12.452 27.4697L6.06592 32.39C9.30696 38.7321 15.8889 43.0835 23.5 43.0835Z" fill="#4CAF50"/>
<path d="M42.7024 19.6648H41.125V19.5835H23.5V27.4168H34.5675C33.7952 29.5871 32.4039 31.4835 30.5657 32.8718L30.5686 32.8698L36.6296 37.9987C36.2008 38.3884 43.0833 33.2918 43.0833 23.5002C43.0833 22.1871 42.9482 20.9054 42.7024 19.6648Z" fill="#1976D2"/>
</svg>
