<svg width="47" height="47" viewBox="0 0 47 47" fill="none" xmlns="http://www.w3.org/2000/svg">
<path d="M0 14.1001V15.3867H9.15031V14.1001H0ZM10.4428 14.1001V15.3867H23.4794C23.4794 15.3867 22.1473 14.1001 20.3848 14.1001H10.4428ZM26.038 14.1001V15.3867H33.9252L33.4552 14.1001H26.038ZM39.5799 14.1001L39.1099 15.3867H46.9236V14.1001H39.5799ZM0 16.6014V17.888H9.15031V16.6014H0ZM10.4428 16.6028V17.888H24.9923C24.9923 17.888 24.8219 16.8981 24.5267 16.6028H10.4428ZM26.038 16.6028V17.888H34.7917L34.3585 16.6028H26.038ZM38.6443 16.6028L38.211 17.888H46.928V16.6028H38.6443ZM2.64375 19.1027V20.3908H6.60497V19.1027H2.64375ZM13.0866 19.1027V20.3908H17.0375V19.1027H13.0866ZM20.9003 19.1027V20.3908H24.863C24.863 20.3908 25.1127 19.7107 25.1127 19.1027H20.9003ZM28.6788 19.1027V20.3908H35.6906L35.2206 19.1027H28.6788ZM37.7924 19.1027L37.3224 20.3908H44.3563V19.1027H37.7924ZM2.64375 21.6054V22.892H6.60497V21.6054H2.64375ZM13.0866 21.6054V22.892H23.2209C23.2209 22.892 24.0669 22.2311 24.3372 21.6054H13.0866ZM28.6817 21.6054V22.892H32.643V22.1782L32.8927 22.8935H40.1483L40.4185 22.1782V22.8935H44.3563V21.6069H36.9185L36.5219 22.6967L36.1254 21.6069L28.6817 21.6054ZM2.64375 24.1082V25.3948H6.60497V24.1082H2.64375ZM13.0866 24.1082V25.3948H24.3225C24.0522 24.7706 23.2063 24.1082 23.2063 24.1082H13.0866ZM28.6817 24.1082V25.3948H32.643V24.1082H28.6817ZM33.3641 24.1082L33.8429 25.3948H39.2847L39.7253 24.1082H33.3641ZM40.4229 24.1082V25.3948H44.3563V24.1082H40.4229ZM2.64375 26.6094V27.8961H6.60497V26.6094H2.64375ZM13.0866 26.6094V27.8961H17.0375V26.6094H13.0866ZM20.9003 26.6094V27.8961H25.1156C25.1156 27.2895 24.8659 26.6094 24.8659 26.6094H20.9003ZM28.6788 26.6094V27.8961H32.64V26.6094H28.6788ZM34.2601 26.6094L34.7242 27.8961H38.3726L38.8426 26.6094H34.2601ZM40.42 26.6094V27.8961H44.3563V26.6094H40.42ZM0.0734375 29.1107V30.3988H9.22375V29.1107H0.0734375ZM10.4472 29.1107V30.3988H24.5325C24.8292 30.1051 24.9981 29.1107 24.9981 29.1107H10.4472ZM26.1129 29.1107V30.3988H32.6342V29.1107H26.1129ZM35.1531 29.1107L35.6304 30.3988H37.4869L37.9349 29.1107H35.1531ZM40.4112 29.1107V30.3988H47V29.1107H40.4112ZM0.0734375 31.6135V32.9001H9.22375V31.6135H0.0734375ZM10.4472 31.6135V32.8986H20.3907C22.1532 32.8986 23.4868 31.6135 23.4868 31.6135H10.4472ZM26.1129 31.6135V32.9001H32.6342V31.6135H26.1129ZM36.0563 31.6135L36.5161 32.8957L36.5954 32.8972L37.0624 31.612L36.0563 31.6135ZM40.4097 31.6135V32.9001H47V31.6135H40.4097Z" fill="#1F70C1"/>
</svg>
