<svg width="47" height="47" viewBox="0 0 47 47" fill="none" xmlns="http://www.w3.org/2000/svg">
<path d="M45.5763 14.8247C45.1992 14.8247 44.8376 14.9745 44.571 15.2411C44.3043 15.5078 44.1545 15.8694 44.1545 16.2465C44.1545 16.6235 44.3043 16.9852 44.571 17.2518C44.8376 17.5184 45.1992 17.6682 45.5763 17.6682C45.9534 17.6682 46.315 17.5184 46.5816 17.2518C46.8483 16.9852 46.998 16.6235 46.998 16.2465C46.998 15.8694 46.8483 15.5078 46.5816 15.2411C46.315 14.9745 45.9534 14.8247 45.5763 14.8247ZM45.5763 15.0362C46.2421 15.0362 46.7905 15.5845 46.7905 16.2484C46.7901 16.488 46.7187 16.7221 46.5854 16.9211C46.452 17.1202 46.2627 17.2753 46.0412 17.3668C45.8198 17.4583 45.5762 17.4821 45.3413 17.4353C45.1063 17.3884 44.8905 17.273 44.7211 17.1036C44.5517 16.9342 44.4363 16.7184 44.3894 16.4834C44.3426 16.2485 44.3664 16.0049 44.4579 15.7835C44.5494 15.562 44.7045 15.3727 44.9036 15.2394C45.1026 15.106 45.3367 15.0346 45.5763 15.0342V15.0362ZM15.935 15.142C14.1725 15.142 12.8995 16.3013 12.7253 18.3556H11.3642V19.3778H12.7057C12.7115 22.6404 12.7018 25.9069 12.7018 29.1656H14.2253C14.2195 25.903 14.2214 22.6404 14.2214 19.3778H17.6446C16.3795 20.404 15.555 22.0666 15.555 23.9486C15.555 27.0682 17.8208 29.5964 20.6115 29.5964C23.404 29.5964 25.6679 27.0682 25.6679 23.9486C25.6679 23.5765 25.6346 23.2122 25.5739 22.8617C26.0752 23.6705 27.0387 24.0622 28.3312 24.6203C29.8548 25.2665 30.7067 25.8286 30.7067 26.7901C30.7067 27.9416 29.6178 28.5428 28.3919 28.533C27.1954 28.533 26.2613 28.0454 25.2194 27.1035V28.913C25.8559 29.3222 26.839 29.5553 27.9023 29.5553C29.2418 29.5494 31.9992 29.0657 31.9992 26.2731C31.9894 24.5968 30.599 23.8761 29.0891 23.2201C27.2502 22.3095 26.5491 22.1175 26.5667 21.0757C26.5667 19.6853 27.777 19.2701 28.7209 19.2701C29.1322 19.2701 29.4847 19.3289 29.8156 19.4385C30.4345 19.6735 30.6381 20.1337 30.8594 20.6351C31.8934 23.0556 32.8843 25.4937 33.8929 27.926C33.4514 28.935 32.9832 29.9322 32.4888 30.9163L32.4809 30.9359L32.1676 31.5175L31.8151 32.1755H33.3073C33.9575 30.7381 36.7207 24.0112 37.316 22.5621C37.7077 23.6059 38.6575 24.025 40.1165 24.6555C41.64 25.2998 42.4939 25.8619 42.4939 26.8234C42.4939 27.9769 41.405 28.5742 40.1811 28.5644C38.9375 28.5644 37.976 28.0376 36.8872 27.0232L36.7892 26.9429V28.7857C37.3963 29.2948 38.493 29.5886 39.6915 29.5886C41.031 29.5847 43.7864 29.101 43.7864 26.3084C43.7785 24.632 42.3862 23.9075 40.8763 23.2534C39.0394 22.3408 38.4088 22.1489 38.4284 21.1051C38.4284 19.7166 39.5623 19.2995 40.5042 19.2995C41.5793 19.2995 42.2589 19.699 43.2067 20.3864V18.7688C42.4759 18.5041 41.7023 18.3779 40.9253 18.3967C39.1823 18.3947 37.6039 19.0312 37.2044 20.5058L35.0405 25.8599L34.8133 26.5336L34.6155 25.8599C33.6324 23.4923 32.6689 21.1129 31.7054 18.7512C31.0866 18.5867 30.078 18.3556 29.3672 18.3673H29.142C27.1249 18.3634 25.1783 19.2153 25.1783 21.2206C25.1783 21.3381 25.1842 21.4458 25.19 21.5535C24.3832 19.6324 22.6383 18.3027 20.6115 18.3027C20.3709 18.3015 20.1306 18.3192 19.8927 18.3556H14.2058C13.9708 16.9201 14.6425 16.1035 15.651 16.1035C16.918 16.1035 17.4605 16.4795 18.0108 16.9847H18.0656C18.0715 16.505 18.0695 15.9449 18.0695 15.4298C17.7073 15.2614 17.0786 15.142 15.935 15.142ZM0 15.189V29.1656H1.68417V15.189H0ZM45.0417 15.4612V16.9593H45.3139V16.3561H45.635L45.8681 16.9593H46.1697L45.8955 16.313C45.9915 16.2641 46.154 16.2112 46.154 15.9468C46.154 15.5101 45.827 15.4612 45.543 15.4612H45.0417ZM45.3139 15.7197H45.6155C45.778 15.7197 45.8681 15.7862 45.8681 15.9194C45.8681 16.0526 45.7663 16.1152 45.639 16.1152H45.3139V15.7197ZM8.17017 18.3223C6.31954 18.3223 5.54012 18.9783 4.92325 19.6402C4.89416 19.679 4.87105 19.7219 4.85471 19.7675H4.83708V19.6833L4.8175 18.4633H3.34092V29.1656H4.85862V21.3381C4.90367 20.3785 6.25688 19.4307 7.31046 19.4307C8.57946 19.4307 9.61737 20.2845 9.61737 21.4654V29.1656H11.1351L11.1312 20.7682C11.0861 19.8224 9.93854 18.3203 8.16821 18.3203L8.17017 18.3223ZM20.4744 19.4111C22.3818 19.3778 23.9661 21.4106 24.0092 23.9505C24.0523 26.4905 22.5404 28.5761 20.631 28.6114C18.7236 28.6427 17.1413 26.6139 17.0982 24.0739C17.0532 21.534 18.567 19.4464 20.4744 19.4131V19.4111Z" fill="#0075CA"/>
</svg>
