<svg width="24" height="24" viewBox="0 0 24 24" fill="none" xmlns="http://www.w3.org/2000/svg">
<path d="M15.1498 8.40042C14.3834 8.39779 13.6239 8.54632 12.9149 8.8375C12.2059 9.12868 11.5613 9.55681 11.018 10.0974C10.4746 10.6379 10.0432 11.2803 9.74837 11.9878C9.45354 12.6953 9.30111 13.454 9.2998 14.2204V20.1004C9.2998 20.3391 9.39463 20.568 9.56341 20.7368C9.73219 20.9056 9.96111 21.0004 10.1998 21.0004H12.2998C12.5385 21.0004 12.7674 20.9056 12.9362 20.7368C13.105 20.568 13.1998 20.3391 13.1998 20.1004V14.2204C13.1996 13.9478 13.2569 13.6782 13.3678 13.4293C13.4788 13.1803 13.641 12.9575 13.8439 12.7754C14.0467 12.5933 14.2857 12.456 14.5452 12.3724C14.8046 12.2889 15.0788 12.2609 15.3498 12.2904C15.8358 12.3516 16.2825 12.5891 16.605 12.9577C16.9276 13.3264 17.1036 13.8006 17.0998 14.2904V20.1004C17.0998 20.3391 17.1946 20.568 17.3634 20.7368C17.5322 20.9056 17.7611 21.0004 17.9998 21.0004H20.0998C20.3385 21.0004 20.5674 20.9056 20.7362 20.7368C20.905 20.568 20.9998 20.3391 20.9998 20.1004V14.2204C20.9985 13.454 20.8461 12.6953 20.5512 11.9878C20.2564 11.2803 19.825 10.6379 19.2816 10.0974C18.7383 9.55681 18.0937 9.12868 17.3847 8.8375C16.6757 8.54632 15.9163 8.39779 15.1498 8.40042Z" fill="white"/>
<path d="M6.6 9.2998H3.9C3.40294 9.2998 3 9.70275 3 10.1998V20.0998C3 20.5969 3.40294 20.9998 3.9 20.9998H6.6C7.09706 20.9998 7.5 20.5969 7.5 20.0998V10.1998C7.5 9.70275 7.09706 9.2998 6.6 9.2998Z" fill="white"/>
<path d="M5.25 7.5C6.49264 7.5 7.5 6.49264 7.5 5.25C7.5 4.00736 6.49264 3 5.25 3C4.00736 3 3 4.00736 3 5.25C3 6.49264 4.00736 7.5 5.25 7.5Z" fill="white"/>
</svg>
