<svg width="80" height="80" viewBox="0 0 80 80" fill="none" xmlns="http://www.w3.org/2000/svg">
<rect width="80" height="80" rx="10" fill="#2DCC6E" fill-opacity="0.1"/>
<path d="M39.1668 56.2502C29.7502 56.2502 22.0835 48.5835 22.0835 39.1668C22.0835 29.7502 29.7502 22.0835 39.1668 22.0835C48.5835 22.0835 56.2502 29.7502 56.2502 39.1668C56.2502 48.5835 48.5835 56.2502 39.1668 56.2502ZM39.1668 24.5835C31.1168 24.5835 24.5835 31.1335 24.5835 39.1668C24.5835 47.2002 31.1168 53.7502 39.1668 53.7502C47.2168 53.7502 53.7502 47.2002 53.7502 39.1668C53.7502 31.1335 47.2168 24.5835 39.1668 24.5835Z" fill="#2FCD70"/>
<path d="M56.6666 57.9166C56.3499 57.9166 56.0332 57.7999 55.7832 57.5499L52.4499 54.2166C51.9666 53.7332 51.9666 52.9332 52.4499 52.4499C52.9332 51.9666 53.7332 51.9666 54.2166 52.4499L57.5499 55.7832C58.0332 56.2666 58.0332 57.0666 57.5499 57.5499C57.2999 57.7999 56.9832 57.9166 56.6666 57.9166Z" fill="#2FCD70"/>
</svg>
