<svg width="47" height="47" viewBox="0 0 47 47" fill="none" xmlns="http://www.w3.org/2000/svg">
<path d="M46.9942 21.3135H29.9028V16.939H46.9942V21.3135Z" fill="#E669A2"/>
<path d="M44.7742 21.3133H29.9028V10.3721H44.7742V21.3133Z" fill="#F3BE26"/>
<path d="M38.63 21.3135H29.9028V6H38.63V21.3135Z" fill="#EE9C34"/>
<path d="M40.347 21.3133H29.9028V7.7085H40.347V21.3133Z" fill="#F3BC87"/>
<path d="M29.9004 7.71143V21.3123H38.6289V7.71143H29.9004Z" fill="#E3721C"/>
<path d="M21.1514 21.3135H29.9028V23.501H21.1514V21.3135Z" fill="#AD1B02"/>
<path d="M29.9004 10.3701V21.3124H40.352V10.3701H29.9004Z" fill="#E88D14"/>
<path d="M29.9004 10.3701V21.3124H38.6289V10.3701H29.9004Z" fill="#D85604"/>
<path d="M35.3605 21.3136H29.9028V14.7466H35.3605V21.3136Z" fill="#C14303"/>
<path d="M29.9004 16.9419V21.3119H44.779V16.9419H29.9004Z" fill="#DB4E18"/>
<path d="M29.9004 16.9419V21.3119H40.352V16.9419H29.9004Z" fill="#D1390D"/>
<path d="M29.9004 16.9419V21.3119H38.6289V16.9419H29.9004Z" fill="#C22303"/>
<path d="M29.9004 16.9419V21.3119H35.3656V16.9419H29.9004Z" fill="#AD1B02"/>
<path d="M31.8054 29.5529C30.3164 29.8176 29.5222 30.9426 29.5222 32.895C29.5222 34.8804 30.581 36.204 32.1363 36.204C32.8974 36.204 33.5591 35.9393 34.9489 35.2444V36.8658C33.2613 37.6599 32.2686 37.8585 30.9451 37.8585C29.456 37.8585 28.3971 37.4945 27.5698 36.6011C26.7095 35.7407 26.2462 34.6157 26.2462 33.3251C26.2462 30.5125 28.364 28.5602 31.4413 28.5602C33.4599 28.5602 34.8827 29.5198 34.8827 30.8765C34.8827 31.7699 34.2209 32.3987 33.2613 32.3987C32.7649 32.3987 32.3678 32.2332 31.8053 31.9354L31.8054 29.5529ZM24.3601 33.3251C25.7168 31.6376 26.2132 30.9426 26.2132 30.1154C26.2132 29.2881 25.5514 28.5601 24.6249 28.5601C24.0954 28.5601 23.5991 28.8579 23.3675 29.1226V32.5971L21.1504 35.5752V28.8249H19.0327L15.5251 34.6157V28.8249H14.3338L11.124 29.5529V30.3801L12.8778 30.5455V37.7262H15.0948L18.47 32.167V37.7262H20.9518L24.3601 33.3251ZM4.40684 36.6011H4.90317C6.68998 36.6011 7.68269 35.5091 7.68269 33.3251C7.68269 31.5052 6.88859 30.5125 5.39945 30.5125C5.20093 30.5125 4.90312 30.5455 4.40679 30.6448V36.6011H4.40684V36.6011ZM4.40684 40.5057L5.86275 40.8366V41.6638H0.138224V40.8366L1.46178 40.5057V30.5124H0.00585938V29.6852L3.48028 28.6263H4.40688V29.8176C6.02825 28.8249 6.59078 28.6594 7.45109 28.6594C9.37035 28.6594 10.8263 30.4463 10.8263 32.9281C10.8263 35.7739 8.87397 37.7262 5.89583 37.7262C5.56495 37.7262 5.00241 37.6931 4.40684 37.66" fill="black"/>
</svg>
